+ filenameToUse=/home/horvathandras/vatic/vatic/public/videouploads/DJI_0017_erozio_kotcse_20180710_napos_kalaszos_T4.avi
+ filenameNoDot=DJI_0017_erozio_kotcse_20180710_napos_kalaszos_T4
+ FullUploadPath=/home/horvathandras/vatic/vatic/public/videouploads/DJI_0017_erozio_kotcse_20180710_napos_kalaszos_T4.avi
+ VideoDataDir=/home/horvathandras/vatic/vatic/videos
+ AvailableObjectTypes='PozitívROI NegatívROI Túrás ~Friss ~1-2Hetes ~Régebbi ~Egyéb1 ~Egyéb2 ~Egyéb3 Rágás ~Friss ~1-2Hetes ~Régebbi ~Egyéb1 ~Egyéb2 ~Egyéb3 Törés ~Friss ~1-2Hetes ~Régebbi ~Egyéb1 ~Egyéb2 ~Egyéb3 Taposás ~Friss ~1-2Hetes ~Régebbi ~Egyéb1 ~Egyéb2 ~Egyéb3 EgészségesNövény Egyéb1 Egyéb2 Egyéb3 Egyéb4 Egyéb5 Bizonytalan Művelőút Gktaposás Vetőhiba Széldöntés Jégkár Belvíz Aszály Erózió EgyszikűGyom KétszikűGyom EgyébNövvédelmiPR'
++ dirname /home/horvathandras/vatic/vatic/vatic_publisher.sh
+ cd /home/horvathandras/vatic/vatic
+ touch /home/horvathandras/vatic/vatic/public/videouploads/DJI_0017_erozio_kotcse_20180710_napos_kalaszos_T4.avi
+ chmod 744 /home/horvathandras/vatic/vatic/public/videouploads/DJI_0017_erozio_kotcse_20180710_napos_kalaszos_T4.avi
+ mkdir /home/horvathandras/vatic/vatic/videos/DJI_0017_erozio_kotcse_20180710_napos_kalaszos_T4
+ turkic extract /home/horvathandras/vatic/vatic/public/videouploads/DJI_0017_erozio_kotcse_20180710_napos_kalaszos_T4.avi /home/horvathandras/vatic/vatic/videos/DJI_0017_erozio_kotcse_20180710_napos_kalaszos_T4 --no-resize
ffmpeg version 2.8.14-0ubuntu0.16.04.1 Copyright (c) 2000-2018 the FFmpeg developers
  built with gcc 5.4.0 (Ubuntu 5.4.0-6ubuntu1~16.04.9) 20160609
  configuration: --prefix=/usr --extra-version=0ubuntu0.16.04.1 --build-suffix=-ffmpeg --toolchain=hardened --libdir=/usr/lib/x86_64-linux-gnu --incdir=/usr/include/x86_64-linux-gnu --cc=cc --cxx=g++ --enable-gpl --enable-shared --disable-stripping --disable-decoder=libopenjpeg --disable-decoder=libschroedinger --enable-avresample --enable-avisynth --enable-gnutls --enable-ladspa --enable-libass --enable-libbluray --enable-libbs2b --enable-libcaca --enable-libcdio --enable-libflite --enable-libfontconfig --enable-libfreetype --enable-libfribidi --enable-libgme --enable-libgsm --enable-libmodplug --enable-libmp3lame --enable-libopenjpeg --enable-libopus --enable-libpulse --enable-librtmp --enable-libschroedinger --enable-libshine --enable-libsnappy --enable-libsoxr --enable-libspeex --enable-libssh --enable-libtheora --enable-libtwolame --enable-libvorbis --enable-libvpx --enable-libwavpack --enable-libwebp --enable-libx265 --enable-libxvid --enable-libzvbi --enable-openal --enable-opengl --enable-x11grab --enable-libdc1394 --enable-libiec61883 --enable-libzmq --enable-frei0r --enable-libx264 --enable-libopencv
  libavutil      54. 31.100 / 54. 31.100
  libavcodec     56. 60.100 / 56. 60.100
  libavformat    56. 40.101 / 56. 40.101
  libavdevice    56.  4.100 / 56.  4.100
  libavfilter     5. 40.101 /  5. 40.101
  libavresample   2.  1.  0 /  2.  1.  0
  libswscale      3.  1.101 /  3.  1.101
  libswresample   1.  2.101 /  1.  2.101
  libpostproc    53.  3.100 / 53.  3.100
Input #0, mov,mp4,m4a,3gp,3g2,mj2, from '/home/horvathandras/vatic/vatic/public/videouploads/DJI_0017_erozio_kotcse_20180710_napos_kalaszos_T4.avi':
  Metadata:
    major_brand     : qt  
    minor_version   : 537986816
    compatible_brands: qt  
    creation_time   : 2018-07-10 09:26:52
    location        : +46.715599+17.868819+31.100
    location-{    : +46.715599+17.868819+31.100
    comment         : DE=None, Mode=P, DSW=0001
  Duration: 00:00:19.16, start: 0.000000, bitrate: 100924 kb/s
    Stream #0:0(eng): Video: h264 (High) (avc1 / 0x31637661), yuv420p(tv, bt709), 4096x2160 [SAR 1:1 DAR 256:135], 100736 kb/s, 50 fps, 50 tbr, 50k tbn, 100 tbc (default)
    Metadata:
      creation_time   : 2018-07-10 09:26:52
      handler_name    : DJI.AVC
      encoder         : AVC encoder
    Stream #0:1(eng): Data: none (priv / 0x76697270), 175 kb/s
    Metadata:
      creation_time   : 2018-07-10 09:26:52
      handler_name    : DJI.Meta
Please use -b:a or -b:v, -b is ambiguous
[swscaler @ 0x1ffd5c0] deprecated pixel format used, make sure you did set range correctly
Output #0, image2, to '/tmp/pyvision-ffmpeg-434078302/%d.jpg':
  Metadata:
    major_brand     : qt  
    minor_version   : 537986816
    compatible_brands: qt  
    comment         : DE=None, Mode=P, DSW=0001
    location        : +46.715599+17.868819+31.100
    location-{    : +46.715599+17.868819+31.100
    encoder         : Lavf56.40.101
    Stream #0:0(eng): Video: mjpeg, yuvj420p(pc), 4096x2160 [SAR 1:1 DAR 256:135], q=2-31, 10000 kb/s, 50 fps, 50 tbn, 50 tbc (default)
    Metadata:
      creation_time   : 2018-07-10 09:26:52
      handler_name    : DJI.AVC
      encoder         : Lavc56.60.100 mjpeg
Stream mapping:
  Stream #0:0 -> #0:0 (h264 (native) -> mjpeg (native))
Press [q] to stop, [?] for help
frame=    1 fps=0.0 q=16.1 size=N/A time=00:00:00.02 bitrate=N/A    frame=    3 fps=1.9 q=20.4 size=N/A time=00:00:00.06 bitrate=N/A    frame=    7 fps=3.3 q=24.8 size=N/A time=00:00:00.14 bitrate=N/A    frame=   11 fps=3.9 q=24.8 size=N/A time=00:00:00.22 bitrate=N/A    frame=   14 fps=4.2 q=24.8 size=N/A time=00:00:00.28 bitrate=N/A    frame=   18 fps=4.5 q=24.8 size=N/A time=00:00:00.36 bitrate=N/A    frame=   21 fps=4.5 q=24.8 size=N/A time=00:00:00.42 bitrate=N/A    frame=   25 fps=4.7 q=24.8 size=N/A time=00:00:00.50 bitrate=N/A    frame=   29 fps=4.9 q=24.8 size=N/A time=00:00:00.58 bitrate=N/A    frame=   33 fps=5.1 q=24.8 size=N/A time=00:00:00.66 bitrate=N/A    frame=   36 fps=5.1 q=24.8 size=N/A time=00:00:00.72 bitrate=N/A    frame=   40 fps=5.3 q=24.8 size=N/A time=00:00:00.80 bitrate=N/A    frame=   44 fps=5.4 q=24.8 size=N/A time=00:00:00.88 bitrate=N/A    frame=   48 fps=5.5 q=24.8 size=N/A time=00:00:00.96 bitrate=N/A    frame=   52 fps=5.6 q=24.8 size=N/A time=00:00:01.04 bitrate=N/A    frame=   56 fps=5.7 q=24.8 size=N/A time=00:00:01.12 bitrate=N/A    frame=   60 fps=5.8 q=24.8 size=N/A time=00:00:01.20 bitrate=N/A    frame=   63 fps=5.7 q=24.8 size=N/A time=00:00:01.26 bitrate=N/A    frame=   66 fps=5.6 q=24.8 size=N/A time=00:00:01.32 bitrate=N/A    frame=   69 fps=5.6 q=24.8 size=N/A time=00:00:01.38 bitrate=N/A    frame=   73 fps=5.7 q=24.8 size=N/A time=00:00:01.46 bitrate=N/A    frame=   76 fps=5.7 q=24.8 size=N/A time=00:00:01.52 bitrate=N/A    frame=   80 fps=5.7 q=24.8 size=N/A time=00:00:01.60 bitrate=N/A    frame=   83 fps=5.7 q=24.8 size=N/A time=00:00:01.66 bitrate=N/A    frame=   87 fps=5.8 q=24.8 size=N/A time=00:00:01.74 bitrate=N/A    frame=   91 fps=5.7 q=24.8 size=N/A time=00:00:01.82 bitrate=N/A    frame=   95 fps=5.8 q=24.8 size=N/A time=00:00:01.90 bitrate=N/A    frame=   99 fps=5.8 q=24.8 size=N/A time=00:00:01.98 bitrate=N/A    frame=  102 fps=5.8 q=24.8 size=N/A time=00:00:02.04 bitrate=N/A    frame=  105 fps=5.8 q=24.8 size=N/A time=00:00:02.10 bitrate=N/A    frame=  109 fps=5.8 q=24.8 size=N/A time=00:00:02.18 bitrate=N/A    frame=  112 fps=5.8 q=24.8 size=N/A time=00:00:02.24 bitrate=N/A    frame=  116 fps=5.8 q=24.8 size=N/A time=00:00:02.32 bitrate=N/A    frame=  119 fps=5.8 q=24.8 size=N/A time=00:00:02.38 bitrate=N/A    frame=  122 fps=5.8 q=24.8 size=N/A time=00:00:02.44 bitrate=N/A    frame=  125 fps=5.8 q=24.8 size=N/A time=00:00:02.50 bitrate=N/A    frame=  128 fps=5.8 q=24.8 size=N/A time=00:00:02.56 bitrate=N/A    frame=  131 fps=5.8 q=24.8 size=N/A time=00:00:02.62 bitrate=N/A    frame=  135 fps=5.8 q=24.8 size=N/A time=00:00:02.70 bitrate=N/A    frame=  138 fps=5.8 q=24.8 size=N/A time=00:00:02.76 bitrate=N/A    frame=  142 fps=5.8 q=24.8 size=N/A time=00:00:02.84 bitrate=N/A    frame=  147 fps=5.8 q=24.8 size=N/A time=00:00:02.94 bitrate=N/A    frame=  150 fps=5.8 q=24.8 size=N/A time=00:00:03.00 bitrate=N/A    frame=  154 fps=5.8 q=24.8 size=N/A time=00:00:03.08 bitrate=N/A    frame=  158 fps=5.8 q=24.8 size=N/A time=00:00:03.16 bitrate=N/A    frame=  161 fps=5.8 q=24.8 size=N/A time=00:00:03.22 bitrate=N/A    frame=  164 fps=5.8 q=24.8 size=N/A time=00:00:03.28 bitrate=N/A    frame=  168 fps=5.9 q=24.8 size=N/A time=00:00:03.36 bitrate=N/A    frame=  171 fps=5.9 q=24.8 size=N/A time=00:00:03.42 bitrate=N/A    frame=  174 fps=5.9 q=24.8 size=N/A time=00:00:03.48 bitrate=N/A    frame=  178 fps=5.9 q=24.8 size=N/A time=00:00:03.56 bitrate=N/A    frame=  181 fps=5.8 q=24.8 size=N/A time=00:00:03.62 bitrate=N/A    frame=  185 fps=5.8 q=24.8 size=N/A time=00:00:03.70 bitrate=N/A    frame=  188 fps=5.8 q=24.8 size=N/A time=00:00:03.76 bitrate=N/A    frame=  192 fps=5.8 q=24.8 size=N/A time=00:00:03.84 bitrate=N/A    frame=  196 fps=5.9 q=24.8 size=N/A time=00:00:03.92 bitrate=N/A    frame=  199 fps=5.8 q=24.8 size=N/A time=00:00:03.98 bitrate=N/A    frame=  203 fps=5.9 q=24.8 size=N/A time=00:00:04.06 bitrate=N/A    frame=  207 fps=5.9 q=24.8 size=N/A time=00:00:04.14 bitrate=N/A    frame=  211 fps=5.9 q=24.8 size=N/A time=00:00:04.22 bitrate=N/A    frame=  215 fps=5.9 q=24.8 size=N/A time=00:00:04.30 bitrate=N/A    frame=  218 fps=5.9 q=24.8 size=N/A time=00:00:04.36 bitrate=N/A    frame=  222 fps=5.9 q=24.8 size=N/A time=00:00:04.44 bitrate=N/A    frame=  226 fps=5.9 q=24.8 size=N/A time=00:00:04.52 bitrate=N/A    frame=  230 fps=5.9 q=24.8 size=N/A time=00:00:04.60 bitrate=N/A    frame=  234 fps=5.9 q=24.8 size=N/A time=00:00:04.68 bitrate=N/A    frame=  236 fps=5.9 q=24.8 size=N/A time=00:00:04.72 bitrate=N/A    frame=  239 fps=5.9 q=24.8 size=N/A time=00:00:04.78 bitrate=N/A    frame=  243 fps=5.9 q=24.8 size=N/A time=00:00:04.86 bitrate=N/A    frame=  246 fps=5.9 q=24.8 size=N/A time=00:00:04.92 bitrate=N/A    frame=  249 fps=5.9 q=24.8 size=N/A time=00:00:04.98 bitrate=N/A    frame=  252 fps=5.9 q=24.8 size=N/A time=00:00:05.04 bitrate=N/A    frame=  255 fps=5.9 q=24.8 size=N/A time=00:00:05.10 bitrate=N/A    frame=  258 fps=5.9 q=24.8 size=N/A time=00:00:05.16 bitrate=N/A    frame=  261 fps=5.9 q=24.8 size=N/A time=00:00:05.22 bitrate=N/A    frame=  264 fps=5.9 q=24.8 size=N/A time=00:00:05.28 bitrate=N/A    frame=  267 fps=5.8 q=24.8 size=N/A time=00:00:05.34 bitrate=N/A    frame=  270 fps=5.8 q=24.8 size=N/A time=00:00:05.40 bitrate=N/A    frame=  273 fps=5.8 q=24.8 size=N/A time=00:00:05.46 bitrate=N/A    frame=  276 fps=5.8 q=24.8 size=N/A time=00:00:05.52 bitrate=N/A    frame=  279 fps=5.8 q=24.8 size=N/A time=00:00:05.58 bitrate=N/A    frame=  283 fps=5.8 q=24.8 size=N/A time=00:00:05.66 bitrate=N/A    frame=  285 fps=5.8 q=24.8 size=N/A time=00:00:05.70 bitrate=N/A    frame=  288 fps=5.8 q=24.8 size=N/A time=00:00:05.76 bitrate=N/A    frame=  291 fps=5.8 q=24.8 size=N/A time=00:00:05.82 bitrate=N/A    frame=  295 fps=5.8 q=24.8 size=N/A time=00:00:05.90 bitrate=N/A    frame=  298 fps=5.8 q=24.8 size=N/A time=00:00:05.96 bitrate=N/A    frame=  302 fps=5.8 q=24.8 size=N/A time=00:00:06.04 bitrate=N/A    frame=  306 fps=5.8 q=24.8 size=N/A time=00:00:06.12 bitrate=N/A    frame=  309 fps=5.8 q=24.8 size=N/A time=00:00:06.18 bitrate=N/A    frame=  313 fps=5.8 q=24.8 size=N/A time=00:00:06.26 bitrate=N/A    frame=  317 fps=5.8 q=24.8 size=N/A time=00:00:06.34 bitrate=N/A    frame=  321 fps=5.9 q=24.8 size=N/A time=00:00:06.42 bitrate=N/A    frame=  324 fps=5.8 q=24.8 size=N/A time=00:00:06.48 bitrate=N/A    frame=  327 fps=5.8 q=24.8 size=N/A time=00:00:06.54 bitrate=N/A    frame=  330 fps=5.8 q=24.8 size=N/A time=00:00:06.60 bitrate=N/A    frame=  334 fps=5.8 q=24.8 size=N/A time=00:00:06.68 bitrate=N/A    frame=  337 fps=5.8 q=24.8 size=N/A time=00:00:06.74 bitrate=N/A    frame=  340 fps=5.8 q=24.8 size=N/A time=00:00:06.80 bitrate=N/A    frame=  343 fps=5.8 q=24.8 size=N/A time=00:00:06.86 bitrate=N/A    frame=  347 fps=5.8 q=24.8 size=N/A time=00:00:06.94 bitrate=N/A    frame=  350 fps=5.8 q=24.8 size=N/A time=00:00:07.00 bitrate=N/A    frame=  353 fps=5.8 q=24.8 size=N/A time=00:00:07.06 bitrate=N/A    frame=  357 fps=5.8 q=24.8 size=N/A time=00:00:07.14 bitrate=N/A    frame=  360 fps=5.8 q=24.8 size=N/A time=00:00:07.20 bitrate=N/A    frame=  363 fps=5.8 q=24.8 size=N/A time=00:00:07.26 bitrate=N/A    frame=  366 fps=5.8 q=24.8 size=N/A time=00:00:07.32 bitrate=N/A    frame=  369 fps=5.8 q=24.8 size=N/A time=00:00:07.38 bitrate=N/A    frame=  372 fps=5.8 q=24.8 size=N/A time=00:00:07.44 bitrate=N/A    frame=  375 fps=5.8 q=24.8 size=N/A time=00:00:07.50 bitrate=N/A    frame=  379 fps=5.8 q=24.8 size=N/A time=00:00:07.58 bitrate=N/A    frame=  383 fps=5.8 q=24.8 size=N/A time=00:00:07.66 bitrate=N/A    frame=  387 fps=5.8 q=24.8 size=N/A time=00:00:07.74 bitrate=N/A    frame=  391 fps=5.8 q=24.8 size=N/A time=00:00:07.82 bitrate=N/A    frame=  394 fps=5.8 q=24.8 size=N/A time=00:00:07.88 bitrate=N/A    frame=  398 fps=5.8 q=24.8 size=N/A time=00:00:07.96 bitrate=N/A    frame=  401 fps=5.8 q=24.8 size=N/A time=00:00:08.02 bitrate=N/A    frame=  404 fps=5.8 q=24.8 size=N/A time=00:00:08.08 bitrate=N/A    frame=  407 fps=5.8 q=24.8 size=N/A time=00:00:08.14 bitrate=N/A    frame=  411 fps=5.8 q=24.8 size=N/A time=00:00:08.22 bitrate=N/A    frame=  415 fps=5.8 q=24.8 size=N/A time=00:00:08.30 bitrate=N/A    frame=  418 fps=5.8 q=24.8 size=N/A time=00:00:08.36 bitrate=N/A    frame=  422 fps=5.8 q=24.8 size=N/A time=00:00:08.44 bitrate=N/A    frame=  425 fps=5.8 q=24.8 size=N/A time=00:00:08.50 bitrate=N/A    frame=  429 fps=5.8 q=24.8 size=N/A time=00:00:08.58 bitrate=N/A    frame=  433 fps=5.8 q=24.8 size=N/A time=00:00:08.66 bitrate=N/A    frame=  437 fps=5.8 q=24.8 size=N/A time=00:00:08.74 bitrate=N/A    frame=  441 fps=5.8 q=24.8 size=N/A time=00:00:08.82 bitrate=N/A    frame=  445 fps=5.9 q=24.8 size=N/A time=00:00:08.90 bitrate=N/A    frame=  450 fps=5.9 q=24.8 size=N/A time=00:00:09.00 bitrate=N/A    frame=  454 fps=5.9 q=24.8 size=N/A time=00:00:09.08 bitrate=N/A    frame=  457 fps=5.9 q=24.8 size=N/A time=00:00:09.14 bitrate=N/A    frame=  460 fps=5.9 q=24.8 size=N/A time=00:00:09.20 bitrate=N/A    frame=  463 fps=5.9 q=24.8 size=N/A time=00:00:09.26 bitrate=N/A    frame=  467 fps=5.9 q=24.8 size=N/A time=00:00:09.34 bitrate=N/A    frame=  469 fps=5.8 q=24.8 size=N/A time=00:00:09.38 bitrate=N/A    frame=  472 fps=5.8 q=24.8 size=N/A time=00:00:09.44 bitrate=N/A    frame=  476 fps=5.8 q=24.8 size=N/A time=00:00:09.52 bitrate=N/A    frame=  479 fps=5.8 q=24.8 size=N/A time=00:00:09.58 bitrate=N/A    frame=  483 fps=5.8 q=24.8 size=N/A time=00:00:09.66 bitrate=N/A    frame=  486 fps=5.8 q=24.8 size=N/A time=00:00:09.72 bitrate=N/A    frame=  489 fps=5.8 q=24.8 size=N/A time=00:00:09.78 bitrate=N/A    frame=  492 fps=5.8 q=24.8 size=N/A time=00:00:09.84 bitrate=N/A    frame=  495 fps=5.8 q=24.8 size=N/A time=00:00:09.90 bitrate=N/A    frame=  499 fps=5.8 q=24.8 size=N/A time=00:00:09.98 bitrate=N/A    frame=  502 fps=5.8 q=24.8 size=N/A time=00:00:10.04 bitrate=N/A    frame=  506 fps=5.8 q=24.8 size=N/A time=00:00:10.12 bitrate=N/A    frame=  508 fps=5.8 q=24.8 size=N/A time=00:00:10.16 bitrate=N/A    frame=  510 fps=5.8 q=24.8 size=N/A time=00:00:10.20 bitrate=N/A    frame=  513 fps=5.8 q=24.8 size=N/A time=00:00:10.26 bitrate=N/A    frame=  517 fps=5.8 q=24.8 size=N/A time=00:00:10.34 bitrate=N/A    frame=  521 fps=5.8 q=24.8 size=N/A time=00:00:10.42 bitrate=N/A    frame=  524 fps=5.8 q=24.8 size=N/A time=00:00:10.48 bitrate=N/A    frame=  527 fps=5.8 q=24.8 size=N/A time=00:00:10.54 bitrate=N/A    frame=  530 fps=5.8 q=24.8 size=N/A time=00:00:10.60 bitrate=N/A    frame=  534 fps=5.8 q=24.8 size=N/A time=00:00:10.68 bitrate=N/A    frame=  538 fps=5.8 q=24.8 size=N/A time=00:00:10.76 bitrate=N/A    frame=  542 fps=5.8 q=24.8 size=N/A time=00:00:10.84 bitrate=N/A    frame=  545 fps=5.8 q=24.8 size=N/A time=00:00:10.90 bitrate=N/A    frame=  549 fps=5.8 q=24.8 size=N/A time=00:00:10.98 bitrate=N/A    frame=  552 fps=5.8 q=24.8 size=N/A time=00:00:11.04 bitrate=N/A    frame=  554 fps=5.8 q=24.8 size=N/A time=00:00:11.08 bitrate=N/A    frame=  557 fps=5.8 q=24.8 size=N/A time=00:00:11.14 bitrate=N/A    frame=  561 fps=5.8 q=24.8 size=N/A time=00:00:11.22 bitrate=N/A    frame=  564 fps=5.8 q=24.8 size=N/A time=00:00:11.28 bitrate=N/A    frame=  567 fps=5.8 q=24.8 size=N/A time=00:00:11.34 bitrate=N/A    frame=  570 fps=5.8 q=24.8 size=N/A time=00:00:11.40 bitrate=N/A    frame=  574 fps=5.8 q=24.8 size=N/A time=00:00:11.48 bitrate=N/A    frame=  578 fps=5.8 q=24.8 size=N/A time=00:00:11.56 bitrate=N/A    frame=  581 fps=5.8 q=24.8 size=N/A time=00:00:11.62 bitrate=N/A    frame=  585 fps=5.8 q=24.8 size=N/A time=00:00:11.70 bitrate=N/A    frame=  589 fps=5.8 q=24.8 size=N/A time=00:00:11.78 bitrate=N/A    frame=  593 fps=5.8 q=24.8 size=N/A time=00:00:11.86 bitrate=N/A    frame=  596 fps=5.8 q=24.8 size=N/A time=00:00:11.92 bitrate=N/A    frame=  599 fps=5.8 q=24.8 size=N/A time=00:00:11.98 bitrate=N/A    frame=  603 fps=5.8 q=24.8 size=N/A time=00:00:12.06 bitrate=N/A    frame=  607 fps=5.8 q=24.8 size=N/A time=00:00:12.14 bitrate=N/A    frame=  610 fps=5.8 q=24.8 size=N/A time=00:00:12.20 bitrate=N/A    frame=  613 fps=5.8 q=24.8 size=N/A time=00:00:12.26 bitrate=N/A    frame=  617 fps=5.8 q=24.8 size=N/A time=00:00:12.34 bitrate=N/A    frame=  621 fps=5.8 q=24.8 size=N/A time=00:00:12.42 bitrate=N/A    frame=  624 fps=5.8 q=24.8 size=N/A time=00:00:12.48 bitrate=N/A    frame=  628 fps=5.8 q=24.8 size=N/A time=00:00:12.56 bitrate=N/A    frame=  631 fps=5.8 q=24.8 size=N/A time=00:00:12.62 bitrate=N/A    frame=  634 fps=5.8 q=24.8 size=N/A time=00:00:12.68 bitrate=N/A    frame=  637 fps=5.8 q=24.8 size=N/A time=00:00:12.74 bitrate=N/A    frame=  640 fps=5.8 q=24.8 size=N/A time=00:00:12.80 bitrate=N/A    frame=  644 fps=5.8 q=24.8 size=N/A time=00:00:12.88 bitrate=N/A    frame=  647 fps=5.8 q=24.8 size=N/A time=00:00:12.94 bitrate=N/A    frame=  650 fps=5.8 q=24.8 size=N/A time=00:00:13.00 bitrate=N/A    frame=  654 fps=5.8 q=24.8 size=N/A time=00:00:13.08 bitrate=N/A    frame=  658 fps=5.8 q=24.8 size=N/A time=00:00:13.16 bitrate=N/A    frame=  661 fps=5.8 q=24.8 size=N/A time=00:00:13.22 bitrate=N/A    frame=  665 fps=5.8 q=24.8 size=N/A time=00:00:13.30 bitrate=N/A    frame=  668 fps=5.8 q=24.8 size=N/A time=00:00:13.36 bitrate=N/A    frame=  672 fps=5.8 q=24.8 size=N/A time=00:00:13.44 bitrate=N/A    frame=  675 fps=5.8 q=24.8 size=N/A time=00:00:13.50 bitrate=N/A    frame=  678 fps=5.8 q=24.8 size=N/A time=00:00:13.56 bitrate=N/A    frame=  682 fps=5.8 q=24.8 size=N/A time=00:00:13.64 bitrate=N/A    frame=  686 fps=5.8 q=24.8 size=N/A time=00:00:13.72 bitrate=N/A    frame=  691 fps=5.8 q=24.8 size=N/A time=00:00:13.82 bitrate=N/A    frame=  694 fps=5.8 q=24.8 size=N/A time=00:00:13.88 bitrate=N/A    frame=  698 fps=5.8 q=24.8 size=N/A time=00:00:13.96 bitrate=N/A    frame=  701 fps=5.8 q=24.8 size=N/A time=00:00:14.02 bitrate=N/A    frame=  704 fps=5.8 q=24.8 size=N/A time=00:00:14.08 bitrate=N/A    frame=  707 fps=5.8 q=24.8 size=N/A time=00:00:14.14 bitrate=N/A    frame=  711 fps=5.8 q=24.8 size=N/A time=00:00:14.22 bitrate=N/A    frame=  715 fps=5.8 q=24.8 size=N/A time=00:00:14.30 bitrate=N/A    frame=  718 fps=5.8 q=24.8 size=N/A time=00:00:14.36 bitrate=N/A    frame=  722 fps=5.8 q=24.8 size=N/A time=00:00:14.44 bitrate=N/A    frame=  726 fps=5.8 q=24.8 size=N/A time=00:00:14.52 bitrate=N/A    frame=  729 fps=5.8 q=24.8 size=N/A time=00:00:14.58 bitrate=N/A    frame=  733 fps=5.8 q=24.8 size=N/A time=00:00:14.66 bitrate=N/A    frame=  736 fps=5.8 q=24.8 size=N/A time=00:00:14.72 bitrate=N/A    frame=  739 fps=5.8 q=24.8 size=N/A time=00:00:14.78 bitrate=N/A    frame=  743 fps=5.8 q=24.8 size=N/A time=00:00:14.86 bitrate=N/A    frame=  746 fps=5.8 q=24.8 size=N/A time=00:00:14.92 bitrate=N/A    frame=  750 fps=5.8 q=24.8 size=N/A time=00:00:15.00 bitrate=N/A    frame=  753 fps=5.8 q=24.8 size=N/A time=00:00:15.06 bitrate=N/A    frame=  756 fps=5.8 q=24.8 size=N/A time=00:00:15.12 bitrate=N/A    frame=  759 fps=5.8 q=24.8 size=N/A time=00:00:15.18 bitrate=N/A    frame=  762 fps=5.8 q=24.8 size=N/A time=00:00:15.24 bitrate=N/A    frame=  765 fps=5.8 q=24.8 size=N/A time=00:00:15.30 bitrate=N/A    frame=  768 fps=5.8 q=24.8 size=N/A time=00:00:15.36 bitrate=N/A    frame=  771 fps=5.8 q=24.8 size=N/A time=00:00:15.42 bitrate=N/A    frame=  774 fps=5.8 q=24.8 size=N/A time=00:00:15.48 bitrate=N/A    frame=  777 fps=5.8 q=24.8 size=N/A time=00:00:15.54 bitrate=N/A    frame=  780 fps=5.8 q=24.8 size=N/A time=00:00:15.60 bitrate=N/A    frame=  783 fps=5.8 q=24.8 size=N/A time=00:00:15.66 bitrate=N/A    frame=  786 fps=5.8 q=24.8 size=N/A time=00:00:15.72 bitrate=N/A    frame=  789 fps=5.8 q=24.8 size=N/A time=00:00:15.78 bitrate=N/A    frame=  793 fps=5.8 q=24.8 size=N/A time=00:00:15.86 bitrate=N/A    frame=  796 fps=5.8 q=24.8 size=N/A time=00:00:15.92 bitrate=N/A    frame=  799 fps=5.8 q=24.8 size=N/A time=00:00:15.98 bitrate=N/A    frame=  802 fps=5.8 q=24.8 size=N/A time=00:00:16.04 bitrate=N/A    frame=  806 fps=5.8 q=24.8 size=N/A time=00:00:16.12 bitrate=N/A    frame=  809 fps=5.8 q=24.8 size=N/A time=00:00:16.18 bitrate=N/A    frame=  812 fps=5.8 q=24.8 size=N/A time=00:00:16.24 bitrate=N/A    frame=  815 fps=5.8 q=24.8 size=N/A time=00:00:16.30 bitrate=N/A    frame=  818 fps=5.8 q=24.8 size=N/A time=00:00:16.36 bitrate=N/A    frame=  821 fps=5.8 q=24.8 size=N/A time=00:00:16.42 bitrate=N/A    frame=  824 fps=5.8 q=24.8 size=N/A time=00:00:16.48 bitrate=N/A    frame=  827 fps=5.8 q=24.8 size=N/A time=00:00:16.54 bitrate=N/A    frame=  831 fps=5.8 q=24.8 size=N/A time=00:00:16.62 bitrate=N/A    frame=  834 fps=5.8 q=24.8 size=N/A time=00:00:16.68 bitrate=N/A    frame=  839 fps=5.8 q=24.8 size=N/A time=00:00:16.78 bitrate=N/A    frame=  842 fps=5.8 q=24.8 size=N/A time=00:00:16.84 bitrate=N/A    frame=  846 fps=5.8 q=24.8 size=N/A time=00:00:16.92 bitrate=N/A    frame=  850 fps=5.8 q=24.8 size=N/A time=00:00:17.00 bitrate=N/A    frame=  852 fps=5.8 q=24.8 size=N/A time=00:00:17.04 bitrate=N/A    frame=  856 fps=5.8 q=24.8 size=N/A time=00:00:17.12 bitrate=N/A    frame=  860 fps=5.8 q=24.8 size=N/A time=00:00:17.20 bitrate=N/A    frame=  863 fps=5.8 q=24.8 size=N/A time=00:00:17.26 bitrate=N/A    frame=  867 fps=5.8 q=24.8 size=N/A time=00:00:17.34 bitrate=N/A    frame=  870 fps=5.8 q=24.8 size=N/A time=00:00:17.40 bitrate=N/A    frame=  873 fps=5.8 q=24.8 size=N/A time=00:00:17.46 bitrate=N/A    frame=  876 fps=5.8 q=24.8 size=N/A time=00:00:17.52 bitrate=N/A    frame=  880 fps=5.8 q=24.8 size=N/A time=00:00:17.60 bitrate=N/A    frame=  882 fps=5.8 q=24.8 size=N/A time=00:00:17.64 bitrate=N/A    frame=  886 fps=5.8 q=24.8 size=N/A time=00:00:17.72 bitrate=N/A    frame=  889 fps=5.8 q=24.8 size=N/A time=00:00:17.78 bitrate=N/A    frame=  892 fps=5.8 q=24.8 size=N/A time=00:00:17.84 bitrate=N/A    frame=  895 fps=5.8 q=24.8 size=N/A time=00:00:17.90 bitrate=N/A    frame=  898 fps=5.7 q=24.8 size=N/A time=00:00:17.96 bitrate=N/A    frame=  902 fps=5.8 q=24.8 size=N/A time=00:00:18.04 bitrate=N/A    frame=  906 fps=5.8 q=24.8 size=N/A time=00:00:18.12 bitrate=N/A    frame=  910 fps=5.8 q=24.8 size=N/A time=00:00:18.20 bitrate=N/A    frame=  913 fps=5.8 q=24.8 size=N/A time=00:00:18.26 bitrate=N/A    frame=  917 fps=5.8 q=24.8 size=N/A time=00:00:18.34 bitrate=N/A    frame=  920 fps=5.8 q=24.8 size=N/A time=00:00:18.40 bitrate=N/A    frame=  923 fps=5.8 q=24.8 size=N/A time=00:00:18.46 bitrate=N/A    frame=  926 fps=5.8 q=24.8 size=N/A time=00:00:18.52 bitrate=N/A    frame=  928 fps=5.7 q=24.8 size=N/A time=00:00:18.56 bitrate=N/A    frame=  931 fps=5.7 q=24.8 size=N/A time=00:00:18.62 bitrate=N/A    frame=  935 fps=5.7 q=24.8 size=N/A time=00:00:18.70 bitrate=N/A    frame=  939 fps=5.7 q=24.8 size=N/A time=00:00:18.78 bitrate=N/A    frame=  942 fps=5.7 q=24.8 size=N/A time=00:00:18.84 bitrate=N/A    frame=  946 fps=5.7 q=24.8 size=N/A time=00:00:18.92 bitrate=N/A    frame=  949 fps=5.7 q=24.8 size=N/A time=00:00:18.98 bitrate=N/A    frame=  953 fps=5.7 q=24.8 size=N/A time=00:00:19.06 bitrate=N/A    frame=  957 fps=5.7 q=24.8 size=N/A time=00:00:19.14 bitrate=N/A    frame=  958 fps=5.7 q=24.8 Lsize=N/A time=00:00:19.16 bitrate=N/A    
video:661361kB audio:0kB subtitle:0kB other streams:0kB global headers:0kB muxing overhead: unknown
+ turkic load DJI_0017_erozio_kotcse_20180710_napos_kalaszos_T4 /home/horvathandras/vatic/vatic/videos/DJI_0017_erozio_kotcse_20180710_napos_kalaszos_T4 $'Pozit\303\255vROI' $'Negat\303\255vROI' $'T\303\272r\303\241s' '~Friss' '~1-2Hetes' '~Régebbi' '~Egyéb1' '~Egyéb2' '~Egyéb3' $'R\303\241g\303\241s' '~Friss' '~1-2Hetes' '~Régebbi' '~Egyéb1' '~Egyéb2' '~Egyéb3' $'T\303\266r\303\251s' '~Friss' '~1-2Hetes' '~Régebbi' '~Egyéb1' '~Egyéb2' '~Egyéb3' $'Tapos\303\241s' '~Friss' '~1-2Hetes' '~Régebbi' '~Egyéb1' '~Egyéb2' '~Egyéb3' $'Eg\303\251szs\303\251gesN\303\266v\303\251ny' $'Egy\303\251b1' $'Egy\303\251b2' $'Egy\303\251b3' $'Egy\303\251b4' $'Egy\303\251b5' Bizonytalan $'M\305\261vel\305\221\303\272t' $'Gktapos\303\241s' $'Vet\305\221hiba' $'Sz\303\251ld\303\266nt\303\251s' $'J\303\251gk\303\241r' $'Belv\303\255z' $'Asz\303\241ly' $'Er\303\263zi\303\263' $'Egyszik\305\261Gyom' $'K\303\251tszik\305\261Gyom' $'Egy\303\251bN\303\266vv\303\251delmiPR' --offline --title '$filenameNoDot Video' --length 1000 --description 'vatic annotation'
+ turkic publish --offline
+ mkdir /home/horvathandras/vatic/vatic/public/videothumbnails/DJI_0017_erozio_kotcse_20180710_napos_kalaszos_T4
+ cp /home/horvathandras/vatic/vatic/videos/DJI_0017_erozio_kotcse_20180710_napos_kalaszos_T4/0/0/31.jpg /home/horvathandras/vatic/vatic/public/videothumbnails/DJI_0017_erozio_kotcse_20180710_napos_kalaszos_T4/thumb.jpg
